<?xml version="1.0" encoding="utf-8"?>
<!-- Generator: Adobe Illustrator 23.0.0, SVG Export Plug-In . SVG Version: 6.00 Build 0)  -->
<svg version="1.1" id="Layer_1" xmlns="http://www.w3.org/2000/svg" xmlns:xlink="http://www.w3.org/1999/xlink" x="0px" y="0px"
	 viewBox="0 0 200 100" style="enable-background:new 0 0 200 100;" xml:space="preserve">
<style type="text/css">
	.st0{fill:#FFFFFF;}
	.st1{fill:none;}
	.st2{font-family: 'Montserrat', sans-serif;}
	.st3{font-size:35px;}
	.st4{letter-spacing:2;}
</style>
<path id="XMLID_101_" class="st0" d="M17.1,24.6c0-0.6,0.5-1,1-1h36.2c0.6,0,1,0.5,1,1c0,0.6-0.5,1-1,1H18.2
	C17.6,25.6,17.1,25.2,17.1,24.6z M18.2,21.4h36.2c0.6,0,1-0.5,1-1c0-0.6-0.5-1-1-1H18.2c-0.6,0-1,0.5-1,1
	C17.1,21,17.6,21.4,18.2,21.4z M65,30.1v50.9c0,1.1-0.9,2.1-2.1,2.1H17.8c-5.3,0-9.6-4.3-9.6-9.6V22.6v0c0-5.3,4.3-9.6,9.6-9.6h45.1
	c1.1,0,2.1,0.9,2.1,2.1c0,1.1-0.9,2.1-2.1,2.1h-1.2V28h1.2C64,28,65,28.9,65,30.1z M12.4,22.6c0,3,2.4,5.4,5.4,5.4h41.8V17.2H17.8
	C14.8,17.2,12.4,19.6,12.4,22.6z M60.8,32.1h-43c-2,0-3.9-0.6-5.4-1.7v43c0,3,2.4,5.4,5.4,5.4h43V32.1z"/>
<rect x="74.6" y="12.8" class="st1" width="121.4" height="69.6"/>
<text transform="matrix(1 0 0 1 74.5815 38.7646)"><tspan x="0" y="0" class="st0 st2 st3">BOOK</tspan><tspan x="0" y="42" class="st0 st2 st3 st4">SHOP</tspan></text>
</svg>
